HIERARCHY
ROOT Hips
{
  OFFSET 5.72205e-005 65.662 3.42586
  CHANNELS 6 Xposition Yposition Zposition Zrotation Xrotation Yrotation
  JOINT Chest
  {
    OFFSET 0 8.7983 -4.7612
    CHANNELS 3 Zrotation Xrotation Yrotation
    JOINT Chest2
    {
      OFFSET 0 8.0291 0.4195
      CHANNELS 3 Zrotation Xrotation Yrotation
      JOINT Chest3
      {
        OFFSET 0 9.9351 -2.2114
        CHANNELS 3 Zrotation Xrotation Yrotation
        JOINT Neck
        {
          OFFSET 0 22.3885 -0.4656
          CHANNELS 3 Zrotation Xrotation Yrotation
          JOINT Head
          {
            OFFSET -0.0001 12.643 3.4389
            CHANNELS 3 Zrotation Xrotation Yrotation
            End Site
            {
              OFFSET 0.0001 17.6655 0.5274
            }
          }
        }
        JOINT LeftCollar
        {
          OFFSET 2.2603 21.606 7.4023
          CHANNELS 3 Zrotation Xrotation Yrotation
          JOINT LeftShoulder
          {
            OFFSET 13.5163 -1.1332 -5.0146
            CHANNELS 3 Zrotation Xrotation Yrotation
            JOINT LeftElbow
            {
              OFFSET -0.0995 -28.05 -0.2431
              CHANNELS 3 Zrotation Xrotation Yrotation
              JOINT LeftWrist
              {
                OFFSET 0.0679 -23.3996 -0.1402
                CHANNELS 3 Zrotation Xrotation Yrotation
                JOINT LeftFinger1
                {
                  OFFSET 0.7932 -9.069 2.5189
                  CHANNELS 3 Zrotation Xrotation Yrotation
                  JOINT LeftFinger11
                  {
                    OFFSET -0.8272 -3.3923 0.5977
                    CHANNELS 3 Zrotation Xrotation Yrotation
                    JOINT LeftFinger12
                    {
                      OFFSET -0.5649 -2.3158 0.4082
                      CHANNELS 3 Zrotation Xrotation Yrotation
                      End Site
                      {
                        OFFSET -0.4919 -1.6479 0.2673
                      }
                    }
                  }
                }
                JOINT LeftFinger2
                {
                  OFFSET 0.9159 -9.2044 0.2193
                  CHANNELS 3 Zrotation Xrotation Yrotation
                  JOINT LeftFinger21
                  {
                    OFFSET 0.0117 -4.1944 -0.0248
                    CHANNELS 3 Zrotation Xrotation Yrotation
                    JOINT LeftFinger22
                    {
                      OFFSET 0.0071 -2.3249 -0.0142
                      CHANNELS 3 Zrotation Xrotation Yrotation
                      End Site
                      {
                        OFFSET -0.1475 -2.0882 0.0028
                      }
                    }
                  }
                }
                JOINT LeftFinger3
                {
                  OFFSET 0.6113 -8.7231 -2.0637
                  CHANNELS 3 Zrotation Xrotation Yrotation
                  JOINT LeftFinger31
                  {
                    OFFSET -0.1927 -3.8059 -0.2383
                    CHANNELS 3 Zrotation Xrotation Yrotation
                    JOINT LeftFinger32
                    {
                      OFFSET -0.1091 -2.1688 -0.1362
                      CHANNELS 3 Zrotation Xrotation Yrotation
                      End Site
                      {
                        OFFSET -0.2358 -1.9176 -0.0906
                      }
                    }
                  }
                }
                JOINT LeftFinger4
                {
                  OFFSET -0.6151 -8.0947 -3.5641
                  CHANNELS 3 Zrotation Xrotation Yrotation
                  JOINT LeftFinger41
                  {
                    OFFSET -0.4882 -2.341 -0.6462
                    CHANNELS 3 Zrotation Xrotation Yrotation
                    JOINT LeftFinger42
                    {
                      OFFSET -0.3575 -1.7167 -0.4742
                      CHANNELS 3 Zrotation Xrotation Yrotation
                      End Site
                      {
                        OFFSET -0.4187 -1.5237 -0.3496
                      }
                    }
                  }
                }
                JOINT LeftFinger0
                {
                  OFFSET -1.42 -1.8761 1.4223
                  CHANNELS 3 Zrotation Xrotation Yrotation
                  JOINT LeftFinger01
                  {
                    OFFSET -1.1471 -3.4929 2.6334
                    CHANNELS 3 Zrotation Xrotation Yrotation
                    JOINT LeftFinger02
                    {
                      OFFSET -0.823 -2.3 1.6571
                      CHANNELS 3 Zrotation Xrotation Yrotation
                      End Site
                      {
                        OFFSET -0.5822 -1.6914 1.1582
                      }
                    }
                  }
                }
              }
            }
          }
        }
        JOINT RightCollar
        {
          OFFSET -2.2603 21.606 7.4023
          CHANNELS 3 Zrotation Xrotation Yrotation
          JOINT RightShoulder
          {
            OFFSET -13.5187 -1.1334 -5.0155
            CHANNELS 3 Zrotation Xrotation Yrotation
            JOINT RightElbow
            {
              OFFSET 0.0994 -28.0499 -0.2431
              CHANNELS 3 Zrotation Xrotation Yrotation
              JOINT RightWrist
              {
                OFFSET -0.0679 -23.3996 -0.1402
                CHANNELS 3 Zrotation Xrotation Yrotation
                JOINT RightFinger1
                {
                  OFFSET -0.7932 -9.0691 2.5189
                  CHANNELS 3 Zrotation Xrotation Yrotation
                  JOINT RightFinger11
                  {
                    OFFSET 0.8272 -3.3923 0.5977
                    CHANNELS 3 Zrotation Xrotation Yrotation
                    JOINT RightFinger12
                    {
                      OFFSET 0.565 -2.3158 0.4082
                      CHANNELS 3 Zrotation Xrotation Yrotation
                      End Site
                      {
                        OFFSET 0.4919 -1.6479 0.2673
                      }
                    }
                  }
                }
                JOINT RightFinger2
                {
                  OFFSET -0.916 -9.2044 0.2193
                  CHANNELS 3 Zrotation Xrotation Yrotation
                  JOINT RightFinger21
                  {
                    OFFSET -0.0117 -4.1944 -0.0248
                    CHANNELS 3 Zrotation Xrotation Yrotation
                    JOINT RightFinger22
                    {
                      OFFSET -0.0071 -2.3249 -0.0142
                      CHANNELS 3 Zrotation Xrotation Yrotation
                      End Site
                      {
                        OFFSET 0.1475 -2.0882 0.0028
                      }
                    }
                  }
                }
                JOINT RightFinger3
                {
                  OFFSET -0.6113 -8.7231 -2.0637
                  CHANNELS 3 Zrotation Xrotation Yrotation
                  JOINT RightFinger31
                  {
                    OFFSET 0.1927 -3.8059 -0.2383
                    CHANNELS 3 Zrotation Xrotation Yrotation
                    JOINT RightFinger32
                    {
                      OFFSET 0.1091 -2.1688 -0.1362
                      CHANNELS 3 Zrotation Xrotation Yrotation
                      End Site
                      {
                        OFFSET 0.2358 -1.9176 -0.0906
                      }
                    }
                  }
                }
                JOINT RightFinger4
                {
                  OFFSET 0.6151 -8.0947 -3.564
                  CHANNELS 3 Zrotation Xrotation Yrotation
                  JOINT RightFinger41
                  {
                    OFFSET 0.4882 -2.341 -0.6462
                    CHANNELS 3 Zrotation Xrotation Yrotation
                    JOINT RightFinger42
                    {
                      OFFSET 0.3574 -1.7166 -0.4742
                      CHANNELS 3 Zrotation Xrotation Yrotation
                      End Site
                      {
                        OFFSET 0.4187 -1.5237 -0.3496
                      }
                    }
                  }
                }
                JOINT RightFinger0
                {
                  OFFSET 1.4199 -1.8761 1.4221
                  CHANNELS 3 Zrotation Xrotation Yrotation
                  JOINT RightFinger01
                  {
                    OFFSET 1.1472 -3.4929 2.6336
                    CHANNELS 3 Zrotation Xrotation Yrotation
                    JOINT RightFinger02
                    {
                      OFFSET 0.8229 -2.3 1.6571
                      CHANNELS 3 Zrotation Xrotation Yrotation
                      End Site
                      {
                        OFFSET 0.5822 -1.6914 1.1582
                      }
                    }
                  }
                }
              }
            }
          }
        }
      }
    }
  }
  JOINT RightHip
  {
    OFFSET -9.412 3.9771 -0.7758
    CHANNELS 3 Zrotation Xrotation Yrotation
    JOINT RightKnee
    {
      OFFSET -0.7531 -40.938 0
      CHANNELS 3 Zrotation Xrotation Yrotation
      JOINT RightAnkle
      {
        OFFSET 0 -40.1986 0
        CHANNELS 3 Zrotation Xrotation Yrotation
        JOINT RightToe
        {
          OFFSET 0 -4.4182 9.239
          CHANNELS 3 Zrotation Xrotation Yrotation
          End Site
          {
            OFFSET 0 0 6.1981
          }
        }
      }
    }
  }
  JOINT LeftHip
  {
    OFFSET 9.4119 3.9773 -0.7758
    CHANNELS 3 Zrotation Xrotation Yrotation
    JOINT LeftKnee
    {
      OFFSET 0.7532 -40.9383 0
      CHANNELS 3 Zrotation Xrotation Yrotation
      JOINT LeftAnkle
      {
        OFFSET 0 -40.1986 0
        CHANNELS 3 Zrotation Xrotation Yrotation
        JOINT LeftToe
        {
          OFFSET 0 -4.4182 9.239
          CHANNELS 3 Zrotation Xrotation Yrotation
          End Site
          {
            OFFSET 0 0 6.1981
          }
        }
      }
    }
  }
}
MOTION
Frames:	6
Frame Time:	0.0333333
5.72205e-005 65.662 3.42586 0 0 -0 0 0 -0 0 0 -0 0 0 -0 0 0 -0 0 0 -0 0 0 -12.5014 88.1196 14.2451 10.6914 -0.00160068 -0.00239207 0.000740045 -8.4365e-005 7.00714e-005 -9.52055e-007 9.93923e-017 -1.98785e-016 -1.59028e-015 9.93923e-017 -5.96354e-016 -1.59028e-015 -9.93923e-017 -5.96354e-016 -1.59028e-015 9.93923e-017 -1.98785e-016 -1.59028e-015 -0.0128176 0.00232552 8.52707e-005 9.93923e-017 5.96354e-016 -0 9.93923e-017 -1.98785e-016 -1.59028e-015 -0.0160551 0.00299681 0.000857156 -2.48481e-016 0 3.18055e-015 9.93923e-017 -1.98785e-016 -1.59028e-015 -0.0125865 0.0031206 0.00282719 0 1.98785e-016 -0 9.93923e-017 -1.98785e-016 -1.59028e-015 9.93923e-017 -5.96354e-016 -1.59028e-015 -9.93923e-017 -5.96354e-016 -1.59028e-015 -0.865644 0.16582 7.03859 -88.0329 10.2057 -10.5567 0.0015593 -0.00248883 -0.000788628 7.87605e-005 4.10553e-005 1.24965e-005 -3.97569e-016 -7.95139e-016 3.18055e-015 -1.98785e-016 -3.97569e-016 3.18055e-015 -1.98785e-016 0 3.18055e-015 -3.97569e-016 -7.95139e-016 3.18055e-015 0.0129473 0.00231697 -8.70038e-005 9.93923e-017 -7.95139e-016 1.59028e-015 -3.97569e-016 -7.95139e-016 3.18055e-015 0.0163314 0.00303369 -0.000872333 3.97569e-016 7.95139e-016 -3.18055e-015 -3.97569e-016 -7.95139e-016 3.18055e-015 0.0145763 0.00367772 -0.00326275 9.93923e-017 -3.97569e-016 -0 -3.97569e-016 -7.95139e-016 3.18055e-015 -1.98785e-016 -3.97569e-016 3.18055e-015 -1.98785e-016 0 3.18055e-015 3.42482 1.32465 -0.0626183 0.000117508 0.717283 0.000978199 -3.4257 -2.04197 -0.0604716 6.47761e-025 0 -0 -3.42483 1.34017 0.0627307 -0.000193936 0.682302 -0.0013703 3.42574 -2.02253 0.0595886 -8.45714e-024 0 -7.40531e-025 
0.422506 24.4492 14.2764 159.862 -64.9387 -0.366259 -0.0202951 -10.9382 -0.671859 -0.179182 -21.8756 -1.38684 -0.179181 -21.8756 -1.38684 0.0762745 0.211737 0.095008 1.54272e-006 0.167389 1.00556e-006 9.55375 42.6858 -10.6929 125.197 -31.0019 -2.55994 39.2411 -46.6071 27.5712 81.0021 37.811 -3.63372 9.37517e-006 2.45962e-006 4.24748e-006 4.3038e-006 6.25682e-006 4.96362e-006 -3.97569e-016 0 2.75814e-015 9.37517e-006 2.45962e-006 4.24748e-006 -0.0128176 0.00233874 8.12977e-005 7.26399e-006 4.40408e-006 2.97845e-006 9.37517e-006 2.45962e-006 4.24748e-006 -0.0160575 0.00299903 0.000858855 5.96354e-016 3.18055e-015 1.88845e-015 9.37517e-006 2.45962e-006 4.24748e-006 -0.0125675 0.00311411 0.00281954 -2.99318e-031 -1.11319e-014 -1.54058e-015 9.37517e-006 2.45962e-006 4.24748e-006 4.3038e-006 6.25682e-006 4.96362e-006 -3.97569e-016 0 2.75814e-015 41.7998 8.89375 -9.6971 -103.286 -39.2506 17.4609 -33.7155 -46.1364 -25.7931 -47.5825 -18.1013 -4.00451 5.93792e-006 -1.15621e-006 -4.39922e-006 1.59028e-015 -5.3501e-016 2.23439e-016 7.58526e-032 -1.35733e-015 3.20191e-015 5.93792e-006 -1.15621e-006 -4.39922e-006 0.0129314 0.00231478 -8.72377e-005 4.77083e-015 -1.27735e-015 -1.23928e-014 5.93792e-006 -1.15621e-006 -4.39922e-006 0.0163295 0.00303701 -0.000872104 -6.36111e-015 2.68029e-015 3.11839e-015 5.93792e-006 -1.15621e-006 -4.39922e-006 0.0145975 0.0036884 -0.00326813 -1.59028e-015 -3.45544e-017 3.48968e-015 5.93792e-006 -1.15621e-006 -4.39922e-006 1.59028e-015 -5.3501e-016 2.23439e-016 7.58526e-032 -1.35733e-015 3.20191e-015 -88.538 -41.0316 -95.4349 66.3609 81.6718 -64.2867 -6.77165 40.0619 10.1874 4.63481e-006 2.60982e-006 -3.84747e-006 88.2297 -40.495 94.7475 -65.2807 81.601 62.7593 6.33399 40.0953 -10.3202 2.67338e-006 3.15911e-006 -4.66246e-006 
1.20611 13.9204 14.4112 -174.346 -76.9758 -0.784509 -0.0518265 -12.2084 -0.785986 -0.289971 -24.415 -1.6417 -0.289975 -24.415 -1.6417 0.0880832 -0.0279526 0.109674 -7.93549e-007 -0.150665 2.14757e-006 9.91882 48.8617 -8.8488 129.753 -38.7857 -5.32658 47.4469 -54.4093 33.1403 91.4801 45.65 -2.4637 5.51738e-032 1.59028e-015 -1.98785e-015 6.36111e-015 1.59028e-015 6.95746e-016 3.18055e-015 1.59028e-015 5.96354e-016 5.51738e-032 1.59028e-015 -1.98785e-015 -0.0128257 0.00233494 8.05402e-005 -4.41391e-032 -3.18055e-015 -7.95139e-016 5.51738e-032 1.59028e-015 -1.98785e-015 -0.0160456 0.00299807 0.000862104 3.97569e-015 3.18055e-015 -4.57205e-015 5.51738e-032 1.59028e-015 -1.98785e-015 -0.0125841 0.00311319 0.00282695 -7.95139e-016 1.59028e-015 -3.47873e-015 5.51738e-032 1.59028e-015 -1.98785e-015 6.36111e-015 1.59028e-015 6.95746e-016 3.18055e-015 1.59028e-015 5.96354e-016 49.0124 9.66184 -12.5771 -105.649 -47.6456 21.8365 -40.4707 -53.9293 -30.4954 -56.1484 -20.1448 -5.03788 -3.18055e-015 0 -2.38542e-015 -1.59028e-015 3.18055e-015 1.59028e-015 -0 0 2.78299e-015 -3.18055e-015 0 -2.38542e-015 0.012949 0.00232047 -8.91044e-005 -1.59028e-015 3.18055e-015 -1.19271e-015 -3.18055e-015 0 -2.38542e-015 0.0163334 0.00304734 -0.000875653 -1.59028e-015 6.36111e-015 6.75868e-015 -3.18055e-015 0 -2.38542e-015 0.0145738 0.00368606 -0.00326041 1.10091e-007 -8.6831e-006 -2.25815e-006 -3.18055e-015 0 -2.38542e-015 -1.59028e-015 3.18055e-015 1.59028e-015 -0 0 2.78299e-015 -103.547 -29.604 -101.779 143.157 77.4728 -139.538 -10.8848 47.4386 14.9473 -7.49855e-006 2.14858e-006 1.58055e-006 103.607 -29.8032 102.02 -143.378 77.4101 139.944 11.0046 47.3641 -14.8726 3.60985e-006 -1.00788e-006 3.59332e-007 
0.81355 16.1229 14.3155 179.109 -76.0407 -0.685473 -0.0565434 -11.1054 -0.756478 -0.273851 -22.209 -1.57005 -0.273851 -22.209 -1.57005 0.084128 -0.378957 0.104598 7.86313e-008 -0.588142 -7.13403e-008 8.81525 46.0814 -7.5734 129.168 -36.8651 -4.17173 47.4095 -53.1744 33.3586 88.9419 43.621 -2.84399 -3.97569e-016 -3.18055e-015 -2.98177e-016 -1.19271e-015 -1.59028e-015 2.68359e-015 -7.95139e-016 0 2.68359e-015 -3.97569e-016 -3.18055e-015 -2.98177e-016 -0.0128266 0.00233103 8.80408e-005 -1.59028e-015 -3.18055e-015 -1.98785e-015 -3.97569e-016 -3.18055e-015 -2.98177e-016 -0.0160492 0.00300438 0.000855696 -7.95139e-016 0 3.37934e-015 -3.97569e-016 -3.18055e-015 -2.98177e-016 -0.0126001 0.00311839 0.00282337 -1.98785e-015 0 2.88238e-015 -3.97569e-016 -3.18055e-015 -2.98177e-016 -1.19271e-015 -1.59028e-015 2.68359e-015 -7.95139e-016 0 2.68359e-015 46.8013 8.71328 -11.9442 -105.423 -45.799 20.4056 -40.2653 -52.6886 -30.5278 -54.495 -19.0888 -4.5853 -2.40556e-006 -5.89927e-006 2.9867e-006 -2.20076e-006 2.88982e-006 -2.81153e-006 7.95139e-016 -1.59028e-015 1.49089e-015 -2.40556e-006 -5.89927e-006 2.9867e-006 0.0129459 0.00232626 -0.000101877 -7.95139e-016 -1.59028e-015 4.96962e-015 -2.40556e-006 -5.89927e-006 2.9867e-006 0.0163273 0.00302644 -0.000866448 7.95139e-016 4.77083e-015 1.68967e-015 -2.40556e-006 -5.89927e-006 2.9867e-006 0.0145809 0.00368254 -0.00326314 -5.86472e-008 -1.10419e-006 -7.36961e-006 -2.40556e-006 -5.89927e-006 2.9867e-006 -2.20076e-006 2.88982e-006 -2.81153e-006 7.95139e-016 -1.59028e-015 1.49089e-015 -97.7447 -31.8739 -98.6155 131.45 79.8692 -128.305 -11.632 45.1415 15.1328 -1.132e-005 -1.17896e-006 9.34145e-007 97.7408 -31.8743 98.602 -131.442 79.8703 128.286 11.623 45.1431 -15.1374 1.6067e-005 1.04045e-006 -1.08649e-005 
0.812355 15.7815 14.2231 179.05 -77.7411 -0.754157 -0.0668872 -10.4801 -0.755742 -0.284514 -20.9584 -1.56456 -0.284514 -20.9585 -1.56457 0.0833655 -0.707617 0.103516 6.8215e-007 -1.00192 -2.68258e-008 8.01609 45.0933 -6.19443 129.564 -36.9096 -3.85696 49.1218 -53.7298 34.7286 88.9419 43.621 -2.844 -1.13578e-005 1.61155e-005 4.98312e-006 2.9397e-006 3.6725e-007 -3.62097e-006 -2.9397e-006 -3.67251e-007 3.62097e-006 -1.13578e-005 1.61155e-005 4.98312e-006 -0.0128116 0.00233531 8.64157e-005 9.05984e-006 -3.20653e-006 3.2524e-006 -1.13578e-005 1.61155e-005 4.98312e-006 -0.0160296 0.00299688 0.000855737 -4.24759e-006 1.00062e-005 5.27289e-006 -1.13578e-005 1.61155e-005 4.98312e-006 -0.012603 0.00314552 0.00284258 2.56384e-006 -9.98266e-006 -5.0006e-006 -1.13578e-005 1.61155e-005 4.98312e-006 2.9397e-006 3.6725e-007 -3.62097e-006 -2.9397e-006 -3.67251e-007 3.62097e-006 46.5046 8.10852 -12.0276 -105.71 -46.0278 20.1553 -41.5181 -53.2531 -31.5405 -54.9213 -18.6453 -4.43893 -6.68295e-006 -6.84901e-006 1.31435e-006 1.59028e-015 0 3.57812e-015 6.68295e-006 6.84901e-006 -1.31436e-006 -6.68295e-006 -6.84901e-006 1.31435e-006 0.0129594 0.00233114 -8.92633e-005 -9.55676e-006 2.63841e-006 -2.24218e-006 -6.68295e-006 -6.84901e-006 1.31435e-006 0.016338 0.00303072 -0.000879491 -2.14072e-006 1.22815e-005 -8.27535e-007 -6.68295e-006 -6.84901e-006 1.31435e-006 0.0145998 0.00369728 -0.00327595 -7.95139e-016 -3.18055e-015 4.67144e-015 -6.68295e-006 -6.84901e-006 1.31435e-006 1.59028e-015 0 3.57812e-015 6.68295e-006 6.84901e-006 -1.31436e-006 -95.9699 -31.2466 -96.924 131.388 79.8785 -128.274 -13.1923 44.8611 16.3558 5.04777e-007 3.22224e-007 6.88273e-007 95.967 -31.248 96.9097 -131.381 79.8795 128.255 13.1819 44.8627 -16.3596 1.1829e-005 2.87822e-006 -1.56945e-007 
0.811172 15.4404 14.1232 178.971 -79.4476 -0.84362 -0.0771896 -9.85281 -0.754722 -0.295138 -19.7037 -1.55859 -0.295141 -19.7037 -1.5586 0.0825961 -1.03645 0.10243 -3.01148e-007 -1.41613 -2.72747e-008 7.26206 44.0898 -4.85501 129.96 -36.9524 -3.54165 50.8821 -54.2611 36.147 88.9421 43.6209 -2.84418 7.95139e-016 1.59028e-015 -5.2181e-015 1.59028e-015 1.59028e-015 8.94531e-016 -1.1249e-006 -3.26276e-007 3.21321e-006 7.95139e-016 1.59028e-015 -5.2181e-015 -0.0128301 0.00234192 0.000101453 -2.86904e-031 1.59028e-015 1.03368e-014 7.95139e-016 1.59028e-015 -5.2181e-015 -0.0160498 0.00300891 0.000877506 -7.51441e-006 -6.75531e-006 -3.40993e-006 7.95139e-016 1.59028e-015 -5.2181e-015 -0.012586 0.00313395 0.00284398 -1.47148e-006 2.71465e-008 1.7977e-006 7.95139e-016 1.59028e-015 -5.2181e-015 1.59028e-015 1.59028e-015 8.94531e-016 -1.1249e-006 -3.26276e-007 3.21321e-006 46.2072 7.50385 -12.1141 -106 -46.2557 19.9024 -42.8055 -53.8043 -32.5883 -55.348 -18.2027 -4.28973 4.77083e-015 -4.77083e-015 1.17283e-014 -5.42911e-006 4.51103e-006 7.17965e-006 -0 0 6.36111e-015 4.77083e-015 -4.77083e-015 1.17283e-014 0.0129596 0.00232216 -7.59383e-005 -1.59028e-015 -1.59028e-015 -8.94531e-015 4.77083e-015 -4.77083e-015 1.17283e-014 0.0163269 0.00305489 -0.000869569 -4.41391e-031 3.18055e-015 7.95139e-015 4.77083e-015 -4.77083e-015 1.17283e-014 0.0145757 0.00367162 -0.00325897 -7.95139e-016 -3.18055e-015 3.97569e-016 4.77083e-015 -4.77083e-015 1.17283e-014 -5.42911e-006 4.51103e-006 7.17965e-006 -0 0 6.36111e-015 -94.2297 -30.5773 -95.2665 131.339 79.8858 -128.255 -14.7376 44.5536 17.5615 9.82181e-006 1.12857e-006 -2.91322e-006 94.2277 -30.5799 95.2514 -131.331 79.8868 128.237 14.7257 44.5552 -17.5645 -7.95139e-016 3.1633e-006 3.97569e-016 
